<svg width="254" height="88" viewBox="0 0 254 88" fill="none" xmlns="http://www.w3.org/2000/svg">
<path d="M71.2955 1.98566H22.5549C12.2223 1.98566 3.84607 10.3619 3.84607 20.6945V65.6832C3.84607 76.0158 12.2223 84.3921 22.5549 84.3921H71.2955C81.6281 84.3921 90.0043 76.0158 90.0043 65.6832V20.6945C90.0043 10.3619 81.6281 1.98566 71.2955 1.98566Z" fill="#CBA2A6"/>
<path d="M20.603 17.8007V38.6631H31.0342V28.2319H41.4822V17.8007H20.603Z" fill="white"/>
<path d="M52.3514 17.8007V28.2319H62.7994V38.663H73.2306V17.8007H52.3514Z" fill="white"/>
<path d="M52.3847 38.5453H41.5161V49.414H52.3847V38.5453Z" fill="white"/>
<path d="M52.3848 59.3403H41.5162V70.209H52.3848V59.3403Z" fill="white"/>
<path d="M126.076 59.3572C125.134 59.3572 124.242 59.5422 123.401 59.9124C122.559 60.2825 121.836 60.7704 121.23 61.3761C120.625 61.9818 120.137 62.7052 119.767 63.5465C119.396 64.3877 119.211 65.2794 119.211 66.2216C119.211 67.1637 119.396 68.0554 119.767 68.8967C120.137 69.7379 120.625 70.4613 121.23 71.067C121.836 71.6727 122.559 72.1606 123.401 72.5307C124.242 72.9009 125.134 73.086 126.076 73.086C127.354 73.086 128.498 72.7663 129.525 72.127C130.551 71.4876 131.342 70.6464 131.931 69.6201H139.3C138.896 71.0165 138.29 72.312 137.466 73.4897C136.642 74.6675 135.649 75.6769 134.488 76.5518C133.327 77.4267 132.032 78.0996 130.602 78.5876C129.171 79.0755 127.657 79.311 126.076 79.311C124.191 79.311 122.408 78.9745 120.726 78.2847C119.043 77.5949 117.596 76.6696 116.351 75.475C115.123 74.2805 114.147 72.9009 113.424 71.3194C112.7 69.7379 112.347 68.0386 112.347 66.2384C112.347 64.4382 112.7 62.7557 113.424 61.1574C114.147 59.5759 115.123 58.1794 116.351 57.0017C117.579 55.824 119.043 54.8818 120.726 54.192C122.408 53.5022 124.191 53.1657 126.076 53.1657C127.691 53.1657 129.222 53.4181 130.652 53.9228C132.082 54.4276 133.394 55.1174 134.555 55.9754C135.733 56.8503 136.742 57.8766 137.567 59.088C138.408 60.2993 139.014 61.6116 139.367 63.0417H132.149C131.544 61.9481 130.702 61.0564 129.659 60.3834C128.599 59.7105 127.405 59.374 126.076 59.374V59.3572Z" fill="#CBA2A6"/>
<path d="M168.288 66.2047C168.288 68.005 167.935 69.6874 167.211 71.2857C166.488 72.8673 165.512 74.2637 164.284 75.4414C163.056 76.6359 161.609 77.5613 159.96 78.2511C158.311 78.9409 156.545 79.2774 154.66 79.2774C152.776 79.2774 151.009 78.9409 149.361 78.2511C147.712 77.5613 146.282 76.6359 145.037 75.4414C143.808 74.2469 142.833 72.8673 142.109 71.2857C141.386 69.7042 141.032 68.005 141.032 66.2047C141.032 64.4045 141.386 62.7221 142.109 61.1237C142.833 59.5422 143.808 58.1458 145.037 56.9681C146.265 55.7904 147.712 54.8482 149.361 54.1584C151.009 53.4686 152.776 53.1321 154.66 53.1321C156.545 53.1321 158.311 53.4686 159.96 54.1584C161.609 54.8482 163.039 55.7736 164.284 56.9681C165.529 58.1626 166.488 59.5422 167.211 61.1237C167.935 62.7053 168.288 64.4045 168.288 66.2047ZM161.424 66.2047C161.424 65.2626 161.255 64.3709 160.902 63.5297C160.549 62.6884 160.078 61.965 159.455 61.3593C158.85 60.7536 158.126 60.2657 157.302 59.8956C156.477 59.5254 155.602 59.3403 154.643 59.3403C153.684 59.3403 152.81 59.5254 151.985 59.8956C151.161 60.2657 150.454 60.7536 149.832 61.3593C149.226 61.965 148.738 62.6884 148.385 63.5297C148.031 64.3709 147.863 65.2626 147.863 66.2047C147.863 67.1469 148.031 68.0386 148.385 68.8798C148.738 69.7211 149.209 70.4445 149.832 71.0502C150.437 71.6559 151.161 72.1438 151.985 72.5139C152.81 72.8841 153.684 73.0691 154.643 73.0691C155.602 73.0691 156.477 72.8841 157.302 72.5139C158.126 72.1438 158.833 71.6559 159.455 71.0502C160.061 70.4445 160.549 69.7211 160.902 68.8798C161.255 68.0386 161.424 67.1469 161.424 66.2047Z" fill="#CBA2A6"/>
<path d="M171.25 66.2047C171.25 64.4045 171.569 62.7221 172.192 61.1237C172.814 59.5422 173.689 58.1458 174.816 56.9681C175.944 55.7736 177.29 54.8482 178.871 54.1584C180.436 53.4686 182.169 53.1321 184.053 53.1321H184.962V59.3572C184.019 59.3572 183.128 59.5422 182.286 59.9124C181.445 60.2825 180.722 60.7704 180.116 61.3761C179.51 61.9818 179.023 62.7053 178.652 63.5465C178.282 64.3877 178.097 65.2794 178.097 66.2216V78.5708H171.233V66.2216L171.25 66.2047Z" fill="#CBA2A6"/>
<path d="M187.94 78.5538V45.6283H194.804V63.3277L202.762 53.8555H210.99L201.887 64.3708L213.143 78.537H204.815L194.804 65.498V78.537H187.94V78.5538Z" fill="#CBA2A6"/>
<path d="M120.154 6.20862V14.4358H127.018V20.2907H120.154V26.785C120.154 27.7272 120.339 28.6189 120.709 29.4601C121.079 30.3013 121.567 31.0248 122.173 31.6304C122.778 32.2361 123.502 32.724 124.343 33.0942C125.184 33.4643 126.076 33.6494 127.018 33.6494V39.8744H126.109C124.225 39.8744 122.492 39.538 120.928 38.8481C119.363 38.1583 118 37.233 116.873 36.0385C115.746 34.8439 114.871 33.4643 114.248 31.8828C113.626 30.3013 113.306 28.602 113.306 26.8018V6.22544H120.17L120.154 6.20862Z" fill="#B1B1DE"/>
<path d="M130.669 26.785C130.669 24.9848 130.988 23.3023 131.611 21.704C132.233 20.1225 133.108 18.7261 134.235 17.5484C135.363 16.3538 136.709 15.4285 138.273 14.7387C139.838 14.0489 141.571 13.7124 143.455 13.7124H144.364V19.9374C143.422 19.9374 142.53 20.1225 141.689 20.4926C140.847 20.8628 140.124 21.3507 139.518 21.9564C138.913 22.5621 138.425 23.2855 138.055 24.1267C137.684 24.968 137.499 25.8597 137.499 26.8018V39.151H130.635V26.8018L130.669 26.785Z" fill="#B1B1DE"/>
<path d="M159.574 13.7124C161.458 13.7124 163.224 14.0489 164.873 14.7387C166.522 15.4285 167.952 16.3538 169.163 17.5484C170.375 18.7429 171.351 20.1225 172.074 21.704C172.798 23.2855 173.151 24.9848 173.151 26.785V39.1342H166.758V36.0721C165.967 37.233 164.941 38.1584 163.696 38.8314C162.45 39.5212 161.071 39.8576 159.574 39.8576C157.706 39.8576 155.956 39.5212 154.291 38.8314C152.625 38.1415 151.195 37.2162 149.967 36.0217C148.755 34.8271 147.78 33.4475 147.056 31.866C146.333 30.2845 145.979 28.5852 145.979 26.785C145.979 24.9848 146.333 23.3023 147.056 21.704C147.78 20.1225 148.739 18.7261 149.967 17.5484C151.178 16.3538 152.625 15.4285 154.291 14.7387C155.956 14.0489 157.706 13.7124 159.574 13.7124ZM159.708 33.6494C160.65 33.6494 161.542 33.4643 162.383 33.0942C163.224 32.7241 163.948 32.2361 164.554 31.6305C165.159 31.0248 165.647 30.3013 166.017 29.4601C166.387 28.6189 166.573 27.7272 166.573 26.785C166.573 25.8428 166.387 24.9511 166.017 24.1099C165.647 23.2687 165.159 22.5452 164.554 21.9396C163.948 21.3339 163.224 20.846 162.383 20.4758C161.542 20.1057 160.65 19.9206 159.708 19.9206C158.766 19.9206 157.874 20.1057 157.033 20.4758C156.192 20.846 155.468 21.3339 154.863 21.9396C154.257 22.5452 153.769 23.2687 153.399 24.1099C153.029 24.9511 152.844 25.8428 152.844 26.785C152.844 27.7272 153.029 28.6189 153.399 29.4601C153.769 30.3013 154.257 31.0248 154.863 31.6305C155.468 32.2361 156.192 32.7241 157.033 33.0942C157.874 33.4643 158.766 33.6494 159.708 33.6494Z" fill="#B1B1DE"/>
<path d="M189.842 19.9206C188.9 19.9206 188.008 20.1056 187.167 20.4758C186.325 20.8459 185.602 21.3338 184.996 21.9395C184.391 22.5452 183.903 23.2687 183.533 24.1099C183.162 24.9511 182.977 25.8428 182.977 26.785C182.977 27.7271 183.162 28.6188 183.533 29.4601C183.903 30.3013 184.391 31.0247 184.996 31.6304C185.602 32.2361 186.325 32.724 187.167 33.0942C188.008 33.4643 188.9 33.6494 189.842 33.6494C191.12 33.6494 192.264 33.3297 193.291 32.6904C194.317 32.051 195.108 31.2098 195.697 30.1835H203.066C202.662 31.58 202.056 32.8754 201.232 34.0532C200.408 35.2309 199.415 36.2403 198.254 37.1152C197.093 37.9901 195.798 38.6631 194.368 39.151C192.937 39.6389 191.423 39.8744 189.842 39.8744C187.957 39.8744 186.174 39.5379 184.492 38.8481C182.809 38.1583 181.362 37.233 180.117 36.0384C178.889 34.8439 177.913 33.4643 177.19 31.8828C176.466 30.3013 176.113 28.602 176.113 26.8018C176.113 25.0016 176.466 23.3191 177.19 21.7208C177.913 20.1393 178.889 18.7429 180.117 17.5651C181.345 16.3874 182.809 15.4453 184.492 14.7555C186.174 14.0656 187.957 13.7292 189.842 13.7292C191.457 13.7292 192.988 13.9815 194.418 14.4863C195.848 14.991 197.16 15.6808 198.321 16.5389C199.482 17.3969 200.508 18.44 201.333 19.6514C202.174 20.8627 202.78 22.1751 203.133 23.6051H195.915C195.31 22.5116 194.468 21.6198 193.425 20.9469C192.365 20.2739 191.171 19.9374 189.842 19.9374V19.9206Z" fill="#B1B1DE"/>
<path d="M218.51 13.7124C220.394 13.7124 222.177 14.0489 223.86 14.7387C225.542 15.4285 226.989 16.3538 228.234 17.5484C229.462 18.7429 230.438 20.1225 231.162 21.704C231.885 23.2855 232.238 24.9848 232.238 26.785C232.238 27.2056 232.221 27.6094 232.171 27.9964C232.121 28.3833 232.07 28.7703 232.02 29.1573H212.083C212.604 30.4696 213.429 31.5463 214.573 32.3876C215.717 33.2288 217.029 33.6494 218.526 33.6494C219.62 33.6494 220.646 33.4139 221.588 32.9259C222.531 32.438 223.304 31.7987 223.927 31.008H231.515C231.061 32.2866 230.404 33.4812 229.563 34.5748C228.722 35.6683 227.729 36.6105 226.585 37.3844C225.441 38.1584 224.196 38.7641 222.833 39.2183C221.471 39.6558 220.041 39.8745 218.51 39.8745C216.625 39.8745 214.842 39.538 213.159 38.8482C211.477 38.1584 210.03 37.233 208.785 36.0385C207.557 34.8439 206.581 33.4643 205.857 31.8828C205.134 30.3013 204.781 28.6021 204.781 26.8018C204.781 25.0016 205.134 23.3192 205.857 21.7208C206.581 20.1393 207.557 18.7429 208.785 17.5652C210.013 16.3875 211.477 15.4453 213.159 14.7555C214.842 14.0657 216.625 13.7292 218.51 13.7292V13.7124ZM224.953 24.4128C224.432 23.1004 223.59 22.0237 222.446 21.1824C221.286 20.3412 219.973 19.9206 218.51 19.9206C217.046 19.9206 215.7 20.3412 214.556 21.1824C213.412 22.0237 212.587 23.1004 212.066 24.4128H224.953Z" fill="#B1B1DE"/>
<path d="M242.014 22.461V16.5388H244.807C245.514 16.5388 246.069 16.7239 246.489 17.1108C246.91 17.4978 247.129 17.9689 247.129 18.5241C247.129 18.9615 247.011 19.3317 246.759 19.6513C246.506 19.9542 246.187 20.1897 245.783 20.3411L247.129 22.461H245.699L244.47 20.5094H243.293V22.461H242.031H242.014ZM243.276 19.3317H244.756C245.11 19.3317 245.379 19.2644 245.547 19.113C245.715 18.9615 245.816 18.7765 245.816 18.5241C245.816 18.2717 245.732 18.0867 245.547 17.9352C245.362 17.7838 245.11 17.7165 244.756 17.7165H243.276V19.3149V19.3317ZM244.269 25.338C241.089 25.338 238.498 22.7471 238.498 19.5672C238.498 16.3874 241.089 13.7964 244.269 13.7964C247.448 13.7964 250.039 16.3874 250.039 19.5672C250.039 22.7471 247.448 25.338 244.269 25.338ZM244.269 15.176C241.829 15.176 239.861 17.1613 239.861 19.584C239.861 22.0068 241.846 23.9921 244.269 23.9921C246.691 23.9921 248.677 22.0068 248.677 19.584C248.677 17.1613 246.691 15.176 244.269 15.176Z" fill="#B1B1DE"/>
</svg>
